<?xml version="1.0" encoding="UTF-8"?>
<svg width="800px" height="600px" viewBox="0 0 800 600" version="1.1" xmlns="http://www.w3.org/2000/svg">
    <g stroke="none" stroke-width="1" fill="none" fill-rule="evenodd">
        <!-- Background Cloud -->
        <path d="M600,250 C600,194.772 555.228,150 500,150 C485.241,150 471.153,153.225 458.579,158.991 C439.094,108.924 390.656,73.4375 333.5,73.4375 C260.462,73.4375 201.125,132.775 201.125,205.813 C201.125,209.821 201.309,213.783 201.666,217.69 C166.822,226.174 141,257.825 141,295 C141,337.907 176.093,373 219,373 L570,373 C587.673,373 602,358.673 602,341 L602,250 L600,250 Z" fill="#E3F2FD"/>
        
        <!-- Dollar Sign -->
        <text x="350" y="270" font-family="Arial" font-size="120" fill="#2196F3" font-weight="bold">$</text>
        
        <!-- Down Arrow -->
        <path d="M400,300 L450,350 L400,400 L350,350 Z" fill="#4CAF50"/>
        
        <!-- AWS Logo Suggestion -->
        <text x="320" y="500" font-family="Arial" font-size="60" fill="#232F3E">AWS</text>
    </g>
</svg>
